<svg>
    <g id="SvgjsG1028" featurekey="monogramFeature-0" transform="matrix(1.35,0,0,1.35,105,-0.2762154579162619)" fill="#0081c6"><path d="M14.88 60 c-9.66 0 -14.88 -1.2 -14.88 -12.54 l0 -20.22 c0 -5.4 3.84 -9.24 9.3 -9.24 c6.42 0 17.4 -0.78 20.58 8.04 c0.96 2.7 0.84 5.94 0.18 8.64 c5.46 1.98 7.62 5.82 7.62 13.2 c0 5.16 -2.52 8.7 -7.5 10.56 c-4.62 1.74 -10.32 1.56 -15.3 1.56 z M9.3 22.14 c-2.4 0 -5.16 1.32 -5.16 5.1 l0 20.04 c0 8.04 2.1 8.58 10.74 8.58 c9.9 0 18.66 -0.06 18.66 -7.98 c0 -5.64 -1.2 -7.86 -4.86 -9.3 c-1.74 4.14 -5.22 8.4 -9.84 8.4 c-5.34 0 -8.46 -5.64 -5.7 -9.96 c1.74 -2.58 5.94 -4.98 12.96 -3.54 c0.48 -2.46 0.42 -4.44 -0.12 -6.06 c-2.04 -5.7 -10.08 -5.28 -16.68 -5.28 z M16.62 39.3 c-1.14 1.8 0.66 4.2 3.18 3.42 c1.74 -0.48 3.72 -2.88 4.86 -5.28 c-2.88 -0.48 -6.6 -0.24 -8.04 1.86 z"></path></g>
</svg>